<svg width="36" height="36" viewBox="0 0 36 36" fill="none" xmlns="http://www.w3.org/2000/svg">
<circle cx="18" cy="18" r="18" fill="#EB5F34"/>
<path d="M20.5 17.75C21.1904 17.75 21.75 17.1904 21.75 16.5C21.75 15.8096 21.1904 15.25 20.5 15.25C19.8096 15.25 19.25 15.8096 19.25 16.5C19.25 17.1904 19.8096 17.75 20.5 17.75Z" fill="white"/>
<path d="M15.5 17.75C16.1904 17.75 16.75 17.1904 16.75 16.5C16.75 15.8096 16.1904 15.25 15.5 15.25C14.8096 15.25 14.25 15.8096 14.25 16.5C14.25 17.1904 14.8096 17.75 15.5 17.75Z" fill="white"/>
<path d="M28.94 18.66C28.98 18.45 29 18.23 29 18C29 17.77 28.98 17.55 28.94 17.34C28.69 15.83 27.58 14.6 26.13 14.17C25.6 13.05 24.85 12.07 23.94 11.26C22.36 9.85 20.28 9 18 9C15.72 9 13.64 9.85 12.06 11.26C11.14 12.07 10.39 13.06 9.87 14.17C8.42 14.6 7.31 15.82 7.06 17.34C7.02 17.55 7 17.77 7 18C7 18.23 7.02 18.45 7.06 18.66C7.31 20.17 8.42 21.4 9.87 21.83C10.39 22.94 11.14 23.92 12.04 24.72C13.62 26.14 15.71 27 18 27C20.29 27 22.38 26.14 23.97 24.72C24.87 23.92 25.62 22.93 26.14 21.83C27.58 21.4 28.69 20.18 28.94 18.66ZM25 20C24.9 20 24.81 19.98 24.71 19.97C24.51 20.64 24.22 21.26 23.85 21.83C22.6 23.74 20.45 25 18 25C15.55 25 13.4 23.74 12.15 21.83C11.78 21.26 11.49 20.64 11.29 19.97C11.19 19.98 11.1 20 11 20C9.9 20 9 19.1 9 18C9 16.9 9.9 16 11 16C11.1 16 11.19 16.02 11.29 16.03C11.49 15.36 11.78 14.74 12.15 14.17C13.4 12.26 15.55 11 18 11C20.45 11 22.6 12.26 23.85 14.17C24.22 14.74 24.51 15.36 24.71 16.03C24.81 16.02 24.9 16 25 16C26.1 16 27 16.9 27 18C27 19.1 26.1 20 25 20ZM13.5 20C14.26 21.77 15.99 23 18 23C20.01 23 21.74 21.77 22.5 20H13.5Z" fill="white"/>
</svg>
