<svg width="36" height="36" viewBox="0 0 36 36" fill="none" xmlns="http://www.w3.org/2000/svg">
<circle cx="18" cy="18" r="18" fill="#FBB114"/>
<path d="M15 19C17.2091 19 19 17.2091 19 15C19 12.7909 17.2091 11 15 11C12.7909 11 11 12.7909 11 15C11 17.2091 12.7909 19 15 19Z" fill="white"/>
<path d="M15 21C12.33 21 7 22.34 7 25V27H23V25C23 22.34 17.67 21 15 21ZM22.76 11.36L21.08 13.05C21.92 14.23 21.92 15.76 21.08 16.94L22.76 18.63C24.78 16.61 24.78 13.56 22.76 11.36ZM26.07 8L24.44 9.63C27.21 12.65 27.21 17.19 24.44 20.37L26.07 22C29.97 18.11 29.98 12.05 26.07 8Z" fill="white"/>
</svg>
