<svg width="36" height="36" viewBox="0 0 36 36" fill="none" xmlns="http://www.w3.org/2000/svg">
<circle cx="18" cy="18" r="18" fill="#FBB114"/>
<path d="M25.6502 18.975C25.6888 18.6625 25.7145 18.3375 25.7145 18C25.7145 17.6625 25.6888 17.3375 25.6373 17.025L27.8102 15.375C28.0031 15.225 28.0545 14.95 27.9388 14.7375L25.8816 11.275C25.753 11.05 25.483 10.975 25.2516 11.05L22.693 12.05C22.153 11.65 21.5872 11.325 20.9572 11.075L20.5715 8.425C20.5329 8.175 20.3143 8 20.0572 8H15.9428C15.6857 8 15.4799 8.175 15.4414 8.425L15.0556 11.075C14.4256 11.325 13.847 11.6625 13.3199 12.05L10.7613 11.05C10.5298 10.9625 10.2598 11.05 10.1312 11.275L8.07405 14.7375C7.94548 14.9625 7.99691 15.225 8.20263 15.375L10.3755 17.025C10.3241 17.3375 10.2855 17.675 10.2855 18C10.2855 18.325 10.3112 18.6625 10.3627 18.975L8.18977 20.625C7.99691 20.775 7.94548 21.05 8.0612 21.2625L10.1184 24.725C10.247 24.95 10.517 25.025 10.7484 24.95L13.307 23.95C13.847 24.35 14.4128 24.675 15.0428 24.925L15.4285 27.575C15.4799 27.825 15.6857 28 15.9428 28H20.0572C20.3143 28 20.5329 27.825 20.5586 27.575L20.9444 24.925C21.5744 24.675 22.153 24.3375 22.6801 23.95L25.2387 24.95C25.4702 25.0375 25.7402 24.95 25.8688 24.725L27.9259 21.2625C28.0545 21.0375 28.0031 20.775 27.7974 20.625L25.6502 18.975ZM18 21.75C15.8785 21.75 14.1428 20.0625 14.1428 18C14.1428 15.9375 15.8785 14.25 18 14.25C20.1215 14.25 21.8572 15.9375 21.8572 18C21.8572 20.0625 20.1215 21.75 18 21.75Z" fill="white"/>
</svg>
